<?xml version="1.0" encoding="UTF-8" standalone="no"?>
<!DOCTYPE svg PUBLIC "-//W3C//DTD SVG 1.1//EN"
 "http://www.w3.org/Graphics/SVG/1.1/DTD/svg11.dtd">
<!-- Generated by graphviz version 12.1.1 (20240910.0053)
 -->
<!-- Pages: 1 -->
<svg width="1205pt" height="1046pt"
 viewBox="0.00 0.00 1205.10 1046.04" xmlns="http://www.w3.org/2000/svg" xmlns:xlink="http://www.w3.org/1999/xlink">
<g id="graph0" class="graph" transform="scale(1 1) rotate(0) translate(4 1042.04)">
<polygon fill="white" stroke="none" points="-4,4 -4,-1042.04 1201.1,-1042.04 1201.1,4 -4,4"/>
<!-- 8665221927004412932 -->
<g id="node1" class="node">
<title>8665221927004412932</title>
<polygon fill="none" stroke="black" points="430.05,-966.04 376.05,-966.04 376.05,-930.04 430.05,-930.04 430.05,-966.04"/>
<text text-anchor="middle" x="403.05" y="-942.62" font-family="Helvetica,sans-Serif" font-size="14.00">0</text>
</g>
<!-- &#45;6996066188502943859 -->
<g id="node2" class="node">
<title>&#45;6996066188502943859</title>
<polygon fill="none" stroke="black" points="430.05,-1038.04 376.05,-1038.04 376.05,-1002.04 430.05,-1002.04 430.05,-1038.04"/>
<text text-anchor="middle" x="403.05" y="-1014.62" font-family="Helvetica,sans-Serif" font-size="14.00">0</text>
</g>
<!-- 8665221927004412932&#45;&gt;&#45;6996066188502943859 -->
<g id="edge1" class="edge">
<title>8665221927004412932&#45;&gt;&#45;6996066188502943859</title>
<path fill="none" stroke="black" d="M403.05,-966.34C403.05,-973.63 403.05,-982.31 403.05,-990.51"/>
<polygon fill="black" stroke="black" points="399.55,-990.42 403.05,-1000.42 406.55,-990.42 399.55,-990.42"/>
</g>
<!-- &#45;7672238773587508387 -->
<g id="node3" class="node">
<title>&#45;7672238773587508387</title>
<polygon fill="none" stroke="black" points="1009.05,-966.04 955.05,-966.04 955.05,-930.04 1009.05,-930.04 1009.05,-966.04"/>
<text text-anchor="middle" x="982.05" y="-942.62" font-family="Helvetica,sans-Serif" font-size="14.00">1</text>
</g>
<!-- &#45;488425432400945434 -->
<g id="node4" class="node">
<title>&#45;488425432400945434</title>
<polygon fill="none" stroke="black" points="1009.05,-1038.04 955.05,-1038.04 955.05,-1002.04 1009.05,-1002.04 1009.05,-1038.04"/>
<text text-anchor="middle" x="982.05" y="-1014.62" font-family="Helvetica,sans-Serif" font-size="14.00">1</text>
</g>
<!-- &#45;7672238773587508387&#45;&gt;&#45;488425432400945434 -->
<g id="edge2" class="edge">
<title>&#45;7672238773587508387&#45;&gt;&#45;488425432400945434</title>
<path fill="none" stroke="black" d="M982.05,-966.34C982.05,-973.63 982.05,-982.31 982.05,-990.51"/>
<polygon fill="black" stroke="black" points="978.55,-990.42 982.05,-1000.42 985.55,-990.42 978.55,-990.42"/>
</g>
<!-- &#45;4440567902190690490 -->
<g id="node5" class="node">
<title>&#45;4440567902190690490</title>
<ellipse fill="none" stroke="black" cx="921.05" cy="-456.7" rx="84.5" ry="84.5"/>
<text text-anchor="middle" x="921.05" y="-451.28" font-family="Helvetica,sans-Serif" font-size="14.00">chunk_max&#45;partial</text>
</g>
<!-- &#45;1132096779419718748 -->
<g id="node6" class="node">
<title>&#45;1132096779419718748</title>
<polygon fill="none" stroke="black" points="973.05,-613.2 919.05,-613.2 919.05,-577.2 973.05,-577.2 973.05,-613.2"/>
<text text-anchor="middle" x="946.05" y="-589.78" font-family="Helvetica,sans-Serif" font-size="14.00">(0, 0)</text>
</g>
<!-- &#45;4440567902190690490&#45;&gt;&#45;1132096779419718748 -->
<g id="edge3" class="edge">
<title>&#45;4440567902190690490&#45;&gt;&#45;1132096779419718748</title>
<path fill="none" stroke="black" d="M936.17,-540.25C937.84,-549.39 939.45,-558.17 940.87,-565.9"/>
<polygon fill="black" stroke="black" points="937.4,-566.37 942.64,-575.58 944.28,-565.11 937.4,-566.37"/>
</g>
<!-- 3701119327006817786 -->
<g id="node42" class="node">
<title>3701119327006817786</title>
<ellipse fill="none" stroke="black" cx="982.05" cy="-771.62" rx="122.42" ry="122.42"/>
<text text-anchor="middle" x="982.05" y="-766.2" font-family="Helvetica,sans-Serif" font-size="14.00">getitem&#45;max&#45;aggregate&#45;add</text>
</g>
<!-- &#45;1132096779419718748&#45;&gt;3701119327006817786 -->
<g id="edge39" class="edge">
<title>&#45;1132096779419718748&#45;&gt;3701119327006817786</title>
<path fill="none" stroke="black" d="M949.64,-613.56C951.14,-620.85 953.03,-630.02 955.14,-640.25"/>
<polygon fill="black" stroke="black" points="951.66,-640.69 957.11,-649.78 958.52,-639.28 951.66,-640.69"/>
</g>
<!-- &#45;9095480396639838407 -->
<g id="node7" class="node">
<title>&#45;9095480396639838407</title>
<polygon fill="none" stroke="black" points="744.05,-297.16 690.05,-297.16 690.05,-261.16 744.05,-261.16 744.05,-297.16"/>
<text text-anchor="middle" x="717.05" y="-273.73" font-family="Helvetica,sans-Serif" font-size="14.00">(0, 0)</text>
</g>
<!-- &#45;9095480396639838407&#45;&gt;&#45;4440567902190690490 -->
<g id="edge4" class="edge">
<title>&#45;9095480396639838407&#45;&gt;&#45;4440567902190690490</title>
<path fill="none" stroke="black" d="M737.36,-297.63C763.23,-319.9 809.35,-359.58 848.9,-393.61"/>
<polygon fill="black" stroke="black" points="846.22,-395.92 856.08,-399.79 850.78,-390.62 846.22,-395.92"/>
</g>
<!-- &#45;6986197023522208110 -->
<g id="node8" class="node">
<title>&#45;6986197023522208110</title>
<polygon fill="none" stroke="black" points="846.05,-297.16 792.05,-297.16 792.05,-261.16 846.05,-261.16 846.05,-297.16"/>
<text text-anchor="middle" x="819.05" y="-273.73" font-family="Helvetica,sans-Serif" font-size="14.00">(0, 1)</text>
</g>
<!-- &#45;6986197023522208110&#45;&gt;&#45;4440567902190690490 -->
<g id="edge5" class="edge">
<title>&#45;6986197023522208110&#45;&gt;&#45;4440567902190690490</title>
<path fill="none" stroke="black" d="M829.2,-297.63C839.66,-315.63 856.73,-345.01 873.34,-373.59"/>
<polygon fill="black" stroke="black" points="870.13,-375.03 878.18,-381.92 876.18,-371.52 870.13,-375.03"/>
</g>
<!-- 6567473021214647140 -->
<g id="node9" class="node">
<title>6567473021214647140</title>
<polygon fill="none" stroke="black" points="948.05,-297.16 894.05,-297.16 894.05,-261.16 948.05,-261.16 948.05,-297.16"/>
<text text-anchor="middle" x="921.05" y="-273.73" font-family="Helvetica,sans-Serif" font-size="14.00">(0, 2)</text>
</g>
<!-- 6567473021214647140&#45;&gt;&#45;4440567902190690490 -->
<g id="edge6" class="edge">
<title>6567473021214647140&#45;&gt;&#45;4440567902190690490</title>
<path fill="none" stroke="black" d="M921.05,-297.63C921.05,-312.83 921.05,-336.14 921.05,-360.23"/>
<polygon fill="black" stroke="black" points="917.55,-360.2 921.05,-370.2 924.55,-360.2 917.55,-360.2"/>
</g>
<!-- &#45;5371630296392906051 -->
<g id="node10" class="node">
<title>&#45;5371630296392906051</title>
<polygon fill="none" stroke="black" points="1050.05,-297.16 996.05,-297.16 996.05,-261.16 1050.05,-261.16 1050.05,-297.16"/>
<text text-anchor="middle" x="1023.05" y="-273.73" font-family="Helvetica,sans-Serif" font-size="14.00">(0, 3)</text>
</g>
<!-- &#45;5371630296392906051&#45;&gt;&#45;4440567902190690490 -->
<g id="edge7" class="edge">
<title>&#45;5371630296392906051&#45;&gt;&#45;4440567902190690490</title>
<path fill="none" stroke="black" d="M1012.9,-297.63C1002.44,-315.63 985.37,-345.01 968.77,-373.59"/>
<polygon fill="black" stroke="black" points="965.92,-371.52 963.92,-381.92 971.97,-375.03 965.92,-371.52"/>
</g>
<!-- 3466532402548736285 -->
<g id="node11" class="node">
<title>3466532402548736285</title>
<polygon fill="none" stroke="black" points="1122.05,-474.7 1068.05,-474.7 1068.05,-438.7 1122.05,-438.7 1122.05,-474.7"/>
<text text-anchor="middle" x="1095.05" y="-451.28" font-family="Helvetica,sans-Serif" font-size="14.00">(0, 1)</text>
</g>
<!-- 5375543976682279677 -->
<g id="node12" class="node">
<title>5375543976682279677</title>
<polygon fill="none" stroke="black" points="1096.05,-613.2 1042.05,-613.2 1042.05,-577.2 1096.05,-577.2 1096.05,-613.2"/>
<text text-anchor="middle" x="1069.05" y="-589.78" font-family="Helvetica,sans-Serif" font-size="14.00">(0, 1)</text>
</g>
<!-- 3466532402548736285&#45;&gt;5375543976682279677 -->
<g id="edge8" class="edge">
<title>3466532402548736285&#45;&gt;5375543976682279677</title>
<path fill="none" stroke="black" d="M1091.76,-474.99C1087.4,-497.86 1079.67,-538.47 1074.45,-565.86"/>
<polygon fill="black" stroke="black" points="1071.03,-565.09 1072.6,-575.57 1077.91,-566.4 1071.03,-565.09"/>
</g>
<!-- 5375543976682279677&#45;&gt;3701119327006817786 -->
<g id="edge40" class="edge">
<title>5375543976682279677&#45;&gt;3701119327006817786</title>
<path fill="none" stroke="black" d="M1060.39,-613.56C1055.46,-623.46 1048.79,-636.82 1041.43,-651.59"/>
<polygon fill="black" stroke="black" points="1038.5,-649.61 1037.17,-660.12 1044.76,-652.73 1038.5,-649.61"/>
</g>
<!-- &#45;3278738128702654936 -->
<g id="node13" class="node">
<title>&#45;3278738128702654936</title>
<ellipse fill="none" stroke="black" cx="321.05" cy="-456.7" rx="84.5" ry="84.5"/>
<text text-anchor="middle" x="321.05" y="-451.28" font-family="Helvetica,sans-Serif" font-size="14.00">chunk_max&#45;partial</text>
</g>
<!-- &#45;3569154626159964441 -->
<g id="node14" class="node">
<title>&#45;3569154626159964441</title>
<polygon fill="none" stroke="black" points="388.05,-613.2 334.05,-613.2 334.05,-577.2 388.05,-577.2 388.05,-613.2"/>
<text text-anchor="middle" x="361.05" y="-589.78" font-family="Helvetica,sans-Serif" font-size="14.00">(1, 0)</text>
</g>
<!-- &#45;3278738128702654936&#45;&gt;&#45;3569154626159964441 -->
<g id="edge9" class="edge">
<title>&#45;3278738128702654936&#45;&gt;&#45;3569154626159964441</title>
<path fill="none" stroke="black" d="M344.67,-538.29C347.56,-548.17 350.36,-557.7 352.79,-566.01"/>
<polygon fill="black" stroke="black" points="349.37,-566.78 355.54,-575.39 356.09,-564.81 349.37,-566.78"/>
</g>
<!-- &#45;2505801681838029666 -->
<g id="node40" class="node">
<title>&#45;2505801681838029666</title>
<ellipse fill="none" stroke="black" cx="403.05" cy="-771.62" rx="122.42" ry="122.42"/>
<text text-anchor="middle" x="403.05" y="-766.2" font-family="Helvetica,sans-Serif" font-size="14.00">getitem&#45;max&#45;aggregate&#45;add</text>
</g>
<!-- &#45;3569154626159964441&#45;&gt;&#45;2505801681838029666 -->
<g id="edge35" class="edge">
<title>&#45;3569154626159964441&#45;&gt;&#45;2505801681838029666</title>
<path fill="none" stroke="black" d="M365.23,-613.56C367.05,-621.12 369.36,-630.71 371.93,-641.4"/>
<polygon fill="black" stroke="black" points="368.49,-642.05 374.23,-650.95 375.3,-640.41 368.49,-642.05"/>
</g>
<!-- &#45;2029122400530516424 -->
<g id="node15" class="node">
<title>&#45;2029122400530516424</title>
<polygon fill="none" stroke="black" points="144.05,-297.16 90.05,-297.16 90.05,-261.16 144.05,-261.16 144.05,-297.16"/>
<text text-anchor="middle" x="117.05" y="-273.73" font-family="Helvetica,sans-Serif" font-size="14.00">(1, 2)</text>
</g>
<!-- &#45;2029122400530516424&#45;&gt;&#45;3278738128702654936 -->
<g id="edge10" class="edge">
<title>&#45;2029122400530516424&#45;&gt;&#45;3278738128702654936</title>
<path fill="none" stroke="black" d="M137.36,-297.63C163.23,-319.9 209.35,-359.58 248.9,-393.61"/>
<polygon fill="black" stroke="black" points="246.22,-395.92 256.08,-399.79 250.78,-390.62 246.22,-395.92"/>
</g>
<!-- 4478518355571482001 -->
<g id="node16" class="node">
<title>4478518355571482001</title>
<polygon fill="none" stroke="black" points="246.05,-297.16 192.05,-297.16 192.05,-261.16 246.05,-261.16 246.05,-297.16"/>
<text text-anchor="middle" x="219.05" y="-273.73" font-family="Helvetica,sans-Serif" font-size="14.00">(1, 3)</text>
</g>
<!-- 4478518355571482001&#45;&gt;&#45;3278738128702654936 -->
<g id="edge11" class="edge">
<title>4478518355571482001&#45;&gt;&#45;3278738128702654936</title>
<path fill="none" stroke="black" d="M229.2,-297.63C239.66,-315.63 256.73,-345.01 273.34,-373.59"/>
<polygon fill="black" stroke="black" points="270.13,-375.03 278.18,-381.92 276.18,-371.52 270.13,-375.03"/>
</g>
<!-- &#45;3643689127659818483 -->
<g id="node17" class="node">
<title>&#45;3643689127659818483</title>
<polygon fill="none" stroke="black" points="348.05,-297.16 294.05,-297.16 294.05,-261.16 348.05,-261.16 348.05,-297.16"/>
<text text-anchor="middle" x="321.05" y="-273.73" font-family="Helvetica,sans-Serif" font-size="14.00">(1, 0)</text>
</g>
<!-- &#45;3643689127659818483&#45;&gt;&#45;3278738128702654936 -->
<g id="edge12" class="edge">
<title>&#45;3643689127659818483&#45;&gt;&#45;3278738128702654936</title>
<path fill="none" stroke="black" d="M321.05,-297.63C321.05,-312.83 321.05,-336.14 321.05,-360.23"/>
<polygon fill="black" stroke="black" points="317.55,-360.2 321.05,-370.2 324.55,-360.2 317.55,-360.2"/>
</g>
<!-- 2863951628442179942 -->
<g id="node18" class="node">
<title>2863951628442179942</title>
<polygon fill="none" stroke="black" points="440.05,-297.16 386.05,-297.16 386.05,-261.16 440.05,-261.16 440.05,-297.16"/>
<text text-anchor="middle" x="413.05" y="-273.73" font-family="Helvetica,sans-Serif" font-size="14.00">(1, 1)</text>
</g>
<!-- 2863951628442179942&#45;&gt;&#45;3278738128702654936 -->
<g id="edge13" class="edge">
<title>2863951628442179942&#45;&gt;&#45;3278738128702654936</title>
<path fill="none" stroke="black" d="M403.89,-297.63C394.67,-315.24 379.73,-343.75 365.06,-371.73"/>
<polygon fill="black" stroke="black" points="362.14,-369.77 360.59,-380.25 368.34,-373.02 362.14,-369.77"/>
</g>
<!-- &#45;5130063019196427279 -->
<g id="node19" class="node">
<title>&#45;5130063019196427279</title>
<polygon fill="none" stroke="black" points="552.05,-474.7 498.05,-474.7 498.05,-438.7 552.05,-438.7 552.05,-474.7"/>
<text text-anchor="middle" x="525.05" y="-451.28" font-family="Helvetica,sans-Serif" font-size="14.00">(1, 1)</text>
</g>
<!-- 2938486129942033984 -->
<g id="node20" class="node">
<title>2938486129942033984</title>
<polygon fill="none" stroke="black" points="471.05,-613.2 417.05,-613.2 417.05,-577.2 471.05,-577.2 471.05,-613.2"/>
<text text-anchor="middle" x="444.05" y="-589.78" font-family="Helvetica,sans-Serif" font-size="14.00">(1, 1)</text>
</g>
<!-- &#45;5130063019196427279&#45;&gt;2938486129942033984 -->
<g id="edge14" class="edge">
<title>&#45;5130063019196427279&#45;&gt;2938486129942033984</title>
<path fill="none" stroke="black" d="M514.79,-474.99C500.98,-498.27 476.25,-539.94 460,-567.32"/>
<polygon fill="black" stroke="black" points="457.09,-565.37 455,-575.75 463.11,-568.94 457.09,-565.37"/>
</g>
<!-- 2938486129942033984&#45;&gt;&#45;2505801681838029666 -->
<g id="edge34" class="edge">
<title>2938486129942033984&#45;&gt;&#45;2505801681838029666</title>
<path fill="none" stroke="black" d="M439.97,-613.56C438.21,-621.06 435.98,-630.54 433.49,-641.12"/>
<polygon fill="black" stroke="black" points="430.16,-640.02 431.27,-650.56 436.97,-641.63 430.16,-640.02"/>
</g>
<!-- &#45;3531704243977729609 -->
<g id="node21" class="node">
<title>&#45;3531704243977729609</title>
<ellipse fill="none" stroke="black" cx="657.05" cy="-129.05" rx="57.05" ry="57.05"/>
<text text-anchor="middle" x="657.05" y="-123.63" font-family="Helvetica,sans-Serif" font-size="14.00">chunk_max</text>
</g>
<!-- &#45;3531704243977729609&#45;&gt;&#45;9095480396639838407 -->
<g id="edge15" class="edge">
<title>&#45;3531704243977729609&#45;&gt;&#45;9095480396639838407</title>
<path fill="none" stroke="black" d="M678.21,-182.27C687.47,-205.13 697.97,-231.05 705.71,-250.17"/>
<polygon fill="black" stroke="black" points="702.47,-251.48 709.47,-259.44 708.96,-248.85 702.47,-251.48"/>
</g>
<!-- &#45;2686629567073286159 -->
<g id="node22" class="node">
<title>&#45;2686629567073286159</title>
<polygon fill="none" stroke="black" points="684.05,-36 630.05,-36 630.05,0 684.05,0 684.05,-36"/>
<text text-anchor="middle" x="657.05" y="-12.57" font-family="Helvetica,sans-Serif" font-size="14.00">(0, 0)</text>
</g>
<!-- &#45;2686629567073286159&#45;&gt;&#45;3531704243977729609 -->
<g id="edge16" class="edge">
<title>&#45;2686629567073286159&#45;&gt;&#45;3531704243977729609</title>
<path fill="none" stroke="black" d="M657.05,-36.04C657.05,-43.02 657.05,-51.6 657.05,-60.68"/>
<polygon fill="black" stroke="black" points="653.55,-60.42 657.05,-70.42 660.55,-60.42 653.55,-60.42"/>
</g>
<!-- 8834754339872035714 -->
<g id="node23" class="node">
<title>8834754339872035714</title>
<ellipse fill="none" stroke="black" cx="789.05" cy="-129.05" rx="57.05" ry="57.05"/>
<text text-anchor="middle" x="789.05" y="-123.63" font-family="Helvetica,sans-Serif" font-size="14.00">chunk_max</text>
</g>
<!-- 8834754339872035714&#45;&gt;&#45;6986197023522208110 -->
<g id="edge17" class="edge">
<title>8834754339872035714&#45;&gt;&#45;6986197023522208110</title>
<path fill="none" stroke="black" d="M800.22,-185.2C804.68,-207.19 809.62,-231.57 813.32,-249.84"/>
<polygon fill="black" stroke="black" points="809.84,-250.29 815.25,-259.4 816.7,-248.9 809.84,-250.29"/>
</g>
<!-- 3821011189028712266 -->
<g id="node24" class="node">
<title>3821011189028712266</title>
<polygon fill="none" stroke="black" points="816.05,-36 762.05,-36 762.05,0 816.05,0 816.05,-36"/>
<text text-anchor="middle" x="789.05" y="-12.57" font-family="Helvetica,sans-Serif" font-size="14.00">(0, 1)</text>
</g>
<!-- 3821011189028712266&#45;&gt;8834754339872035714 -->
<g id="edge18" class="edge">
<title>3821011189028712266&#45;&gt;8834754339872035714</title>
<path fill="none" stroke="black" d="M789.05,-36.04C789.05,-43.02 789.05,-51.6 789.05,-60.68"/>
<polygon fill="black" stroke="black" points="785.55,-60.42 789.05,-70.42 792.55,-60.42 785.55,-60.42"/>
</g>
<!-- &#45;5372670561398623294 -->
<g id="node25" class="node">
<title>&#45;5372670561398623294</title>
<ellipse fill="none" stroke="black" cx="921.05" cy="-129.05" rx="57.05" ry="57.05"/>
<text text-anchor="middle" x="921.05" y="-123.63" font-family="Helvetica,sans-Serif" font-size="14.00">chunk_max</text>
</g>
<!-- &#45;5372670561398623294&#45;&gt;6567473021214647140 -->
<g id="edge19" class="edge">
<title>&#45;5372670561398623294&#45;&gt;6567473021214647140</title>
<path fill="none" stroke="black" d="M921.05,-186.47C921.05,-207.99 921.05,-231.62 921.05,-249.5"/>
<polygon fill="black" stroke="black" points="917.55,-249.35 921.05,-259.35 924.55,-249.35 917.55,-249.35"/>
</g>
<!-- &#45;1072062839943984100 -->
<g id="node26" class="node">
<title>&#45;1072062839943984100</title>
<polygon fill="none" stroke="black" points="948.05,-36 894.05,-36 894.05,0 948.05,0 948.05,-36"/>
<text text-anchor="middle" x="921.05" y="-12.57" font-family="Helvetica,sans-Serif" font-size="14.00">(0, 2)</text>
</g>
<!-- &#45;1072062839943984100&#45;&gt;&#45;5372670561398623294 -->
<g id="edge20" class="edge">
<title>&#45;1072062839943984100&#45;&gt;&#45;5372670561398623294</title>
<path fill="none" stroke="black" d="M921.05,-36.04C921.05,-43.02 921.05,-51.6 921.05,-60.68"/>
<polygon fill="black" stroke="black" points="917.55,-60.42 921.05,-70.42 924.55,-60.42 917.55,-60.42"/>
</g>
<!-- 7442626846980891983 -->
<g id="node27" class="node">
<title>7442626846980891983</title>
<ellipse fill="none" stroke="black" cx="1053.05" cy="-129.05" rx="57.05" ry="57.05"/>
<text text-anchor="middle" x="1053.05" y="-123.63" font-family="Helvetica,sans-Serif" font-size="14.00">chunk_max</text>
</g>
<!-- 7442626846980891983&#45;&gt;&#45;5371630296392906051 -->
<g id="edge21" class="edge">
<title>7442626846980891983&#45;&gt;&#45;5371630296392906051</title>
<path fill="none" stroke="black" d="M1041.88,-185.2C1037.43,-207.19 1032.49,-231.57 1028.79,-249.84"/>
<polygon fill="black" stroke="black" points="1025.41,-248.9 1026.85,-259.4 1032.27,-250.29 1025.41,-248.9"/>
</g>
<!-- 5435577916158014325 -->
<g id="node28" class="node">
<title>5435577916158014325</title>
<polygon fill="none" stroke="black" points="1080.05,-36 1026.05,-36 1026.05,0 1080.05,0 1080.05,-36"/>
<text text-anchor="middle" x="1053.05" y="-12.57" font-family="Helvetica,sans-Serif" font-size="14.00">(0, 3)</text>
</g>
<!-- 5435577916158014325&#45;&gt;7442626846980891983 -->
<g id="edge22" class="edge">
<title>5435577916158014325&#45;&gt;7442626846980891983</title>
<path fill="none" stroke="black" d="M1053.05,-36.04C1053.05,-43.02 1053.05,-51.6 1053.05,-60.68"/>
<polygon fill="black" stroke="black" points="1049.55,-60.42 1053.05,-70.42 1056.55,-60.42 1049.55,-60.42"/>
</g>
<!-- &#45;6153895739304449200 -->
<g id="node29" class="node">
<title>&#45;6153895739304449200</title>
<ellipse fill="none" stroke="black" cx="321.05" cy="-129.05" rx="57.05" ry="57.05"/>
<text text-anchor="middle" x="321.05" y="-123.63" font-family="Helvetica,sans-Serif" font-size="14.00">chunk_max</text>
</g>
<!-- &#45;6153895739304449200&#45;&gt;&#45;3643689127659818483 -->
<g id="edge23" class="edge">
<title>&#45;6153895739304449200&#45;&gt;&#45;3643689127659818483</title>
<path fill="none" stroke="black" d="M321.05,-186.47C321.05,-207.99 321.05,-231.62 321.05,-249.5"/>
<polygon fill="black" stroke="black" points="317.55,-249.35 321.05,-259.35 324.55,-249.35 317.55,-249.35"/>
</g>
<!-- 7163519084891101893 -->
<g id="node30" class="node">
<title>7163519084891101893</title>
<polygon fill="none" stroke="black" points="348.05,-36 294.05,-36 294.05,0 348.05,0 348.05,-36"/>
<text text-anchor="middle" x="321.05" y="-12.57" font-family="Helvetica,sans-Serif" font-size="14.00">(1, 0)</text>
</g>
<!-- 7163519084891101893&#45;&gt;&#45;6153895739304449200 -->
<g id="edge24" class="edge">
<title>7163519084891101893&#45;&gt;&#45;6153895739304449200</title>
<path fill="none" stroke="black" d="M321.05,-36.04C321.05,-43.02 321.05,-51.6 321.05,-60.68"/>
<polygon fill="black" stroke="black" points="317.55,-60.42 321.05,-70.42 324.55,-60.42 317.55,-60.42"/>
</g>
<!-- &#45;6958022644453022242 -->
<g id="node31" class="node">
<title>&#45;6958022644453022242</title>
<ellipse fill="none" stroke="black" cx="453.05" cy="-129.05" rx="57.05" ry="57.05"/>
<text text-anchor="middle" x="453.05" y="-123.63" font-family="Helvetica,sans-Serif" font-size="14.00">chunk_max</text>
</g>
<!-- &#45;6958022644453022242&#45;&gt;2863951628442179942 -->
<g id="edge25" class="edge">
<title>&#45;6958022644453022242&#45;&gt;2863951628442179942</title>
<path fill="none" stroke="black" d="M438.38,-184.36C432.39,-206.54 425.71,-231.27 420.72,-249.77"/>
<polygon fill="black" stroke="black" points="417.4,-248.64 418.17,-259.21 424.16,-250.47 417.4,-248.64"/>
</g>
<!-- &#45;4775584232716451298 -->
<g id="node32" class="node">
<title>&#45;4775584232716451298</title>
<polygon fill="none" stroke="black" points="480.05,-36 426.05,-36 426.05,0 480.05,0 480.05,-36"/>
<text text-anchor="middle" x="453.05" y="-12.57" font-family="Helvetica,sans-Serif" font-size="14.00">(1, 1)</text>
</g>
<!-- &#45;4775584232716451298&#45;&gt;&#45;6958022644453022242 -->
<g id="edge26" class="edge">
<title>&#45;4775584232716451298&#45;&gt;&#45;6958022644453022242</title>
<path fill="none" stroke="black" d="M453.05,-36.04C453.05,-43.02 453.05,-51.6 453.05,-60.68"/>
<polygon fill="black" stroke="black" points="449.55,-60.42 453.05,-70.42 456.55,-60.42 449.55,-60.42"/>
</g>
<!-- &#45;2718703472014129634 -->
<g id="node33" class="node">
<title>&#45;2718703472014129634</title>
<ellipse fill="none" stroke="black" cx="57.05" cy="-129.05" rx="57.05" ry="57.05"/>
<text text-anchor="middle" x="57.05" y="-123.63" font-family="Helvetica,sans-Serif" font-size="14.00">chunk_max</text>
</g>
<!-- &#45;2718703472014129634&#45;&gt;&#45;2029122400530516424 -->
<g id="edge27" class="edge">
<title>&#45;2718703472014129634&#45;&gt;&#45;2029122400530516424</title>
<path fill="none" stroke="black" d="M78.21,-182.27C87.47,-205.13 97.97,-231.05 105.71,-250.17"/>
<polygon fill="black" stroke="black" points="102.47,-251.48 109.47,-259.44 108.96,-248.85 102.47,-251.48"/>
</g>
<!-- 8778085812020403952 -->
<g id="node34" class="node">
<title>8778085812020403952</title>
<polygon fill="none" stroke="black" points="84.05,-36 30.05,-36 30.05,0 84.05,0 84.05,-36"/>
<text text-anchor="middle" x="57.05" y="-12.57" font-family="Helvetica,sans-Serif" font-size="14.00">(1, 2)</text>
</g>
<!-- 8778085812020403952&#45;&gt;&#45;2718703472014129634 -->
<g id="edge28" class="edge">
<title>8778085812020403952&#45;&gt;&#45;2718703472014129634</title>
<path fill="none" stroke="black" d="M57.05,-36.04C57.05,-43.02 57.05,-51.6 57.05,-60.68"/>
<polygon fill="black" stroke="black" points="53.55,-60.42 57.05,-70.42 60.55,-60.42 53.55,-60.42"/>
</g>
<!-- 4366018738557562941 -->
<g id="node35" class="node">
<title>4366018738557562941</title>
<ellipse fill="none" stroke="black" cx="189.05" cy="-129.05" rx="57.05" ry="57.05"/>
<text text-anchor="middle" x="189.05" y="-123.63" font-family="Helvetica,sans-Serif" font-size="14.00">chunk_max</text>
</g>
<!-- 4366018738557562941&#45;&gt;4478518355571482001 -->
<g id="edge29" class="edge">
<title>4366018738557562941&#45;&gt;4478518355571482001</title>
<path fill="none" stroke="black" d="M200.22,-185.2C204.68,-207.19 209.62,-231.57 213.32,-249.84"/>
<polygon fill="black" stroke="black" points="209.84,-250.29 215.25,-259.4 216.7,-248.9 209.84,-250.29"/>
</g>
<!-- &#45;7559374888571517367 -->
<g id="node36" class="node">
<title>&#45;7559374888571517367</title>
<polygon fill="none" stroke="black" points="216.05,-36 162.05,-36 162.05,0 216.05,0 216.05,-36"/>
<text text-anchor="middle" x="189.05" y="-12.57" font-family="Helvetica,sans-Serif" font-size="14.00">(1, 3)</text>
</g>
<!-- &#45;7559374888571517367&#45;&gt;4366018738557562941 -->
<g id="edge30" class="edge">
<title>&#45;7559374888571517367&#45;&gt;4366018738557562941</title>
<path fill="none" stroke="black" d="M189.05,-36.04C189.05,-43.02 189.05,-51.6 189.05,-60.68"/>
<polygon fill="black" stroke="black" points="185.55,-60.42 189.05,-70.42 192.55,-60.42 185.55,-60.42"/>
</g>
<!-- &#45;3855853495799050169 -->
<g id="node37" class="node">
<title>&#45;3855853495799050169</title>
<polygon fill="none" stroke="black" points="1182.05,-147.05 1128.05,-147.05 1128.05,-111.05 1182.05,-111.05 1182.05,-147.05"/>
<text text-anchor="middle" x="1155.05" y="-123.63" font-family="Helvetica,sans-Serif" font-size="14.00">(0, 4)</text>
</g>
<!-- &#45;49813807362206441 -->
<g id="node41" class="node">
<title>&#45;49813807362206441</title>
<ellipse fill="none" stroke="black" cx="1140.05" cy="-279.16" rx="57.05" ry="57.05"/>
<text text-anchor="middle" x="1140.05" y="-273.73" font-family="Helvetica,sans-Serif" font-size="14.00">chunk_max</text>
</g>
<!-- &#45;3855853495799050169&#45;&gt;&#45;49813807362206441 -->
<g id="edge37" class="edge">
<title>&#45;3855853495799050169&#45;&gt;&#45;49813807362206441</title>
<path fill="none" stroke="black" d="M1153.3,-147.33C1151.71,-163.07 1149.25,-187.36 1146.88,-210.75"/>
<polygon fill="black" stroke="black" points="1143.4,-210.32 1145.88,-220.62 1150.37,-211.02 1143.4,-210.32"/>
</g>
<!-- &#45;1051734132469518942 -->
<g id="node38" class="node">
<title>&#45;1051734132469518942</title>
<polygon fill="none" stroke="black" points="582.05,-147.05 528.05,-147.05 528.05,-111.05 582.05,-111.05 582.05,-147.05"/>
<text text-anchor="middle" x="555.05" y="-123.63" font-family="Helvetica,sans-Serif" font-size="14.00">(1, 4)</text>
</g>
<!-- 2604153282022287219 -->
<g id="node39" class="node">
<title>2604153282022287219</title>
<ellipse fill="none" stroke="black" cx="545.05" cy="-279.16" rx="57.05" ry="57.05"/>
<text text-anchor="middle" x="545.05" y="-273.73" font-family="Helvetica,sans-Serif" font-size="14.00">chunk_max</text>
</g>
<!-- &#45;1051734132469518942&#45;&gt;2604153282022287219 -->
<g id="edge32" class="edge">
<title>&#45;1051734132469518942&#45;&gt;2604153282022287219</title>
<path fill="none" stroke="black" d="M553.89,-147.33C552.83,-163 551.2,-187.15 549.62,-210.46"/>
<polygon fill="black" stroke="black" points="546.14,-210.07 548.96,-220.28 553.13,-210.54 546.14,-210.07"/>
</g>
<!-- 2604153282022287219&#45;&gt;&#45;5130063019196427279 -->
<g id="edge31" class="edge">
<title>2604153282022287219&#45;&gt;&#45;5130063019196427279</title>
<path fill="none" stroke="black" d="M538.67,-336.18C535.23,-366.4 531.12,-402.42 528.33,-426.96"/>
<polygon fill="black" stroke="black" points="524.86,-426.5 527.2,-436.83 531.81,-427.29 524.86,-426.5"/>
</g>
<!-- &#45;2505801681838029666&#45;&gt;8665221927004412932 -->
<g id="edge33" class="edge">
<title>&#45;2505801681838029666&#45;&gt;8665221927004412932</title>
<path fill="none" stroke="black" d="M403.05,-894.24C403.05,-903 403.05,-911.21 403.05,-918.42"/>
<polygon fill="black" stroke="black" points="399.55,-918.38 403.05,-928.38 406.55,-918.38 399.55,-918.38"/>
</g>
<!-- &#45;49813807362206441&#45;&gt;3466532402548736285 -->
<g id="edge36" class="edge">
<title>&#45;49813807362206441&#45;&gt;3466532402548736285</title>
<path fill="none" stroke="black" d="M1126.06,-334.74C1118.18,-365.5 1108.66,-402.63 1102.26,-427.57"/>
<polygon fill="black" stroke="black" points="1098.95,-426.41 1099.85,-436.97 1105.73,-428.15 1098.95,-426.41"/>
</g>
<!-- 3701119327006817786&#45;&gt;&#45;7672238773587508387 -->
<g id="edge38" class="edge">
<title>3701119327006817786&#45;&gt;&#45;7672238773587508387</title>
<path fill="none" stroke="black" d="M982.05,-894.24C982.05,-903 982.05,-911.21 982.05,-918.42"/>
<polygon fill="black" stroke="black" points="978.55,-918.38 982.05,-928.38 985.55,-918.38 978.55,-918.38"/>
</g>
</g>
</svg>
