<?xml version="1.0" encoding="UTF-8" standalone="no"?>
<!DOCTYPE svg PUBLIC "-//W3C//DTD SVG 1.1//EN"
 "http://www.w3.org/Graphics/SVG/1.1/DTD/svg11.dtd">
<!-- Generated by graphviz version 2.50.0 (0)
 -->
<!-- Pages: 1 -->
<svg width="979pt" height="1007pt"
 viewBox="0.00 0.00 978.99 1007.15" xmlns="http://www.w3.org/2000/svg" xmlns:xlink="http://www.w3.org/1999/xlink">
<g id="graph0" class="graph" transform="scale(1 1) rotate(0) translate(4 1003.15)">
<polygon fill="white" stroke="transparent" points="-4,4 -4,-1003.15 974.99,-1003.15 974.99,4 -4,4"/>
<!-- 254208993933676206 -->
<g id="node1" class="node">
<title>254208993933676206</title>
<polygon fill="none" stroke="black" points="309.5,-927.15 255.5,-927.15 255.5,-891.15 309.5,-891.15 309.5,-927.15"/>
<text text-anchor="middle" x="282.5" y="-905.45" font-family="Helvetica,sans-Serif" font-size="14.00">0</text>
</g>
<!-- &#45;6795017670506556599 -->
<g id="node2" class="node">
<title>&#45;6795017670506556599</title>
<polygon fill="none" stroke="black" points="309.5,-999.15 255.5,-999.15 255.5,-963.15 309.5,-963.15 309.5,-999.15"/>
<text text-anchor="middle" x="282.5" y="-977.45" font-family="Helvetica,sans-Serif" font-size="14.00">0</text>
</g>
<!-- 254208993933676206&#45;&gt;&#45;6795017670506556599 -->
<g id="edge1" class="edge">
<title>254208993933676206&#45;&gt;&#45;6795017670506556599</title>
<path fill="none" stroke="black" d="M282.5,-927.45C282.5,-935.16 282.5,-944.43 282.5,-953.03"/>
<polygon fill="black" stroke="black" points="279,-953.04 282.5,-963.04 286,-953.04 279,-953.04"/>
</g>
<!-- &#45;4638865035039020160 -->
<g id="node3" class="node">
<title>&#45;4638865035039020160</title>
<polygon fill="none" stroke="black" points="788.5,-927.15 734.5,-927.15 734.5,-891.15 788.5,-891.15 788.5,-927.15"/>
<text text-anchor="middle" x="761.5" y="-905.45" font-family="Helvetica,sans-Serif" font-size="14.00">1</text>
</g>
<!-- &#45;287376914404558174 -->
<g id="node4" class="node">
<title>&#45;287376914404558174</title>
<polygon fill="none" stroke="black" points="788.5,-999.15 734.5,-999.15 734.5,-963.15 788.5,-963.15 788.5,-999.15"/>
<text text-anchor="middle" x="761.5" y="-977.45" font-family="Helvetica,sans-Serif" font-size="14.00">1</text>
</g>
<!-- &#45;4638865035039020160&#45;&gt;&#45;287376914404558174 -->
<g id="edge2" class="edge">
<title>&#45;4638865035039020160&#45;&gt;&#45;287376914404558174</title>
<path fill="none" stroke="black" d="M761.5,-927.45C761.5,-935.16 761.5,-944.43 761.5,-953.03"/>
<polygon fill="black" stroke="black" points="758,-953.04 761.5,-963.04 765,-953.04 758,-953.04"/>
</g>
<!-- 1280786044067028085 -->
<g id="node5" class="node">
<title>1280786044067028085</title>
<ellipse fill="none" stroke="black" cx="685.5" cy="-437.77" rx="59.59" ry="59.59"/>
<text text-anchor="middle" x="685.5" y="-434.07" font-family="Helvetica,sans-Serif" font-size="14.00">amax&#45;partial</text>
</g>
<!-- 3323344295820262472 -->
<g id="node6" class="node">
<title>3323344295820262472</title>
<polygon fill="none" stroke="black" points="732.5,-569.57 678.5,-569.57 678.5,-533.57 732.5,-533.57 732.5,-569.57"/>
<text text-anchor="middle" x="705.5" y="-547.87" font-family="Helvetica,sans-Serif" font-size="14.00">(0, 0)</text>
</g>
<!-- 1280786044067028085&#45;&gt;3323344295820262472 -->
<g id="edge3" class="edge">
<title>1280786044067028085&#45;&gt;3323344295820262472</title>
<path fill="none" stroke="black" d="M695.91,-496.96C697.57,-506.26 699.22,-515.47 700.67,-523.57"/>
<polygon fill="black" stroke="black" points="697.23,-524.25 702.44,-533.48 704.12,-523.02 697.23,-524.25"/>
</g>
<!-- &#45;5518290690916172866 -->
<g id="node40" class="node">
<title>&#45;5518290690916172866</title>
<ellipse fill="none" stroke="black" cx="761.5" cy="-730.36" rx="124.58" ry="124.58"/>
<text text-anchor="middle" x="761.5" y="-726.66" font-family="Helvetica,sans-Serif" font-size="14.00">amax&#45;aggregate&#45;getitem&#45;add</text>
</g>
<!-- 3323344295820262472&#45;&gt;&#45;5518290690916172866 -->
<g id="edge34" class="edge">
<title>3323344295820262472&#45;&gt;&#45;5518290690916172866</title>
<path fill="none" stroke="black" d="M710.97,-569.84C713.64,-578.29 717.13,-589.28 721.01,-601.54"/>
<polygon fill="black" stroke="black" points="717.7,-602.67 724.05,-611.15 724.37,-600.56 717.7,-602.67"/>
</g>
<!-- 7910317537205797834 -->
<g id="node7" class="node">
<title>7910317537205797834</title>
<polygon fill="none" stroke="black" points="552.5,-275.49 498.5,-275.49 498.5,-239.49 552.5,-239.49 552.5,-275.49"/>
<text text-anchor="middle" x="525.5" y="-253.79" font-family="Helvetica,sans-Serif" font-size="14.00">(0, 0)</text>
</g>
<!-- 7910317537205797834&#45;&gt;1280786044067028085 -->
<g id="edge4" class="edge">
<title>7910317537205797834&#45;&gt;1280786044067028085</title>
<path fill="none" stroke="black" d="M532.89,-275.6C541.04,-293.32 555.29,-321.24 572.5,-341.98 588.88,-361.72 609.75,-380.53 629.09,-396.11"/>
<polygon fill="black" stroke="black" points="626.96,-398.9 636.97,-402.37 631.31,-393.41 626.96,-398.9"/>
</g>
<!-- 3017243508233101468 -->
<g id="node8" class="node">
<title>3017243508233101468</title>
<polygon fill="none" stroke="black" points="635.5,-275.49 581.5,-275.49 581.5,-239.49 635.5,-239.49 635.5,-275.49"/>
<text text-anchor="middle" x="608.5" y="-253.79" font-family="Helvetica,sans-Serif" font-size="14.00">(0, 1)</text>
</g>
<!-- 3017243508233101468&#45;&gt;1280786044067028085 -->
<g id="edge5" class="edge">
<title>3017243508233101468&#45;&gt;1280786044067028085</title>
<path fill="none" stroke="black" d="M615.88,-275.58C625.51,-297.89 642.91,-338.17 657.9,-372.89"/>
<polygon fill="black" stroke="black" points="654.88,-374.72 662.06,-382.51 661.31,-371.94 654.88,-374.72"/>
</g>
<!-- 5126526881350731765 -->
<g id="node9" class="node">
<title>5126526881350731765</title>
<polygon fill="none" stroke="black" points="712.5,-275.49 658.5,-275.49 658.5,-239.49 712.5,-239.49 712.5,-275.49"/>
<text text-anchor="middle" x="685.5" y="-253.79" font-family="Helvetica,sans-Serif" font-size="14.00">(0, 2)</text>
</g>
<!-- 5126526881350731765&#45;&gt;1280786044067028085 -->
<g id="edge6" class="edge">
<title>5126526881350731765&#45;&gt;1280786044067028085</title>
<path fill="none" stroke="black" d="M685.5,-275.58C685.5,-296.75 685.5,-334.11 685.5,-367.53"/>
<polygon fill="black" stroke="black" points="682,-367.76 685.5,-377.76 689,-367.76 682,-367.76"/>
</g>
<!-- &#45;6812576436256821426 -->
<g id="node10" class="node">
<title>&#45;6812576436256821426</title>
<polygon fill="none" stroke="black" points="784.5,-275.49 730.5,-275.49 730.5,-239.49 784.5,-239.49 784.5,-275.49"/>
<text text-anchor="middle" x="757.5" y="-253.79" font-family="Helvetica,sans-Serif" font-size="14.00">(0, 3)</text>
</g>
<!-- &#45;6812576436256821426&#45;&gt;1280786044067028085 -->
<g id="edge7" class="edge">
<title>&#45;6812576436256821426&#45;&gt;1280786044067028085</title>
<path fill="none" stroke="black" d="M750.59,-275.58C741.62,-297.81 725.43,-337.88 711.45,-372.51"/>
<polygon fill="black" stroke="black" points="708.07,-371.53 707.57,-382.12 714.56,-374.16 708.07,-371.53"/>
</g>
<!-- &#45;1751398162364693482 -->
<g id="node11" class="node">
<title>&#45;1751398162364693482</title>
<polygon fill="none" stroke="black" points="865.5,-455.77 811.5,-455.77 811.5,-419.77 865.5,-419.77 865.5,-455.77"/>
<text text-anchor="middle" x="838.5" y="-434.07" font-family="Helvetica,sans-Serif" font-size="14.00">(0, 1)</text>
</g>
<!-- &#45;5968087116136802022 -->
<g id="node12" class="node">
<title>&#45;5968087116136802022</title>
<polygon fill="none" stroke="black" points="844.5,-569.57 790.5,-569.57 790.5,-533.57 844.5,-533.57 844.5,-569.57"/>
<text text-anchor="middle" x="817.5" y="-547.87" font-family="Helvetica,sans-Serif" font-size="14.00">(0, 1)</text>
</g>
<!-- &#45;1751398162364693482&#45;&gt;&#45;5968087116136802022 -->
<g id="edge8" class="edge">
<title>&#45;1751398162364693482&#45;&gt;&#45;5968087116136802022</title>
<path fill="none" stroke="black" d="M835.22,-456.24C831.84,-474.21 826.54,-502.44 822.61,-523.34"/>
<polygon fill="black" stroke="black" points="819.16,-522.75 820.76,-533.22 826.04,-524.04 819.16,-522.75"/>
</g>
<!-- &#45;5968087116136802022&#45;&gt;&#45;5518290690916172866 -->
<g id="edge35" class="edge">
<title>&#45;5968087116136802022&#45;&gt;&#45;5518290690916172866</title>
<path fill="none" stroke="black" d="M812.03,-569.84C809.35,-578.29 805.87,-589.28 801.98,-601.54"/>
<polygon fill="black" stroke="black" points="798.62,-600.56 798.94,-611.15 805.3,-602.67 798.62,-600.56"/>
</g>
<!-- &#45;2673623266083146080 -->
<g id="node13" class="node">
<title>&#45;2673623266083146080</title>
<ellipse fill="none" stroke="black" cx="195.5" cy="-437.77" rx="59.59" ry="59.59"/>
<text text-anchor="middle" x="195.5" y="-434.07" font-family="Helvetica,sans-Serif" font-size="14.00">amax&#45;partial</text>
</g>
<!-- 8775135564800282396 -->
<g id="node14" class="node">
<title>8775135564800282396</title>
<polygon fill="none" stroke="black" points="262.5,-569.57 208.5,-569.57 208.5,-533.57 262.5,-533.57 262.5,-569.57"/>
<text text-anchor="middle" x="235.5" y="-547.87" font-family="Helvetica,sans-Serif" font-size="14.00">(1, 0)</text>
</g>
<!-- &#45;2673623266083146080&#45;&gt;8775135564800282396 -->
<g id="edge9" class="edge">
<title>&#45;2673623266083146080&#45;&gt;8775135564800282396</title>
<path fill="none" stroke="black" d="M215.38,-494.34C219.08,-504.7 222.79,-515.06 226,-524.02"/>
<polygon fill="black" stroke="black" points="222.71,-525.23 229.38,-533.47 229.31,-522.88 222.71,-525.23"/>
</g>
<!-- 8689134210354486142 -->
<g id="node42" class="node">
<title>8689134210354486142</title>
<ellipse fill="none" stroke="black" cx="282.5" cy="-730.36" rx="124.58" ry="124.58"/>
<text text-anchor="middle" x="282.5" y="-726.66" font-family="Helvetica,sans-Serif" font-size="14.00">amax&#45;aggregate&#45;getitem&#45;add</text>
</g>
<!-- 8775135564800282396&#45;&gt;8689134210354486142 -->
<g id="edge39" class="edge">
<title>8775135564800282396&#45;&gt;8689134210354486142</title>
<path fill="none" stroke="black" d="M240.09,-569.84C242.22,-577.85 244.96,-588.15 248.01,-599.65"/>
<polygon fill="black" stroke="black" points="244.7,-600.8 250.65,-609.57 251.46,-599 244.7,-600.8"/>
</g>
<!-- &#45;3470068540394431799 -->
<g id="node15" class="node">
<title>&#45;3470068540394431799</title>
<polygon fill="none" stroke="black" points="68.5,-275.49 14.5,-275.49 14.5,-239.49 68.5,-239.49 68.5,-275.49"/>
<text text-anchor="middle" x="41.5" y="-253.79" font-family="Helvetica,sans-Serif" font-size="14.00">(1, 2)</text>
</g>
<!-- &#45;3470068540394431799&#45;&gt;&#45;2673623266083146080 -->
<g id="edge10" class="edge">
<title>&#45;3470068540394431799&#45;&gt;&#45;2673623266083146080</title>
<path fill="none" stroke="black" d="M47.49,-275.66C54.23,-293.42 66.36,-321.39 82.5,-341.98 98.39,-362.26 119.25,-381.25 138.72,-396.82"/>
<polygon fill="black" stroke="black" points="136.64,-399.64 146.67,-403.06 140.96,-394.13 136.64,-399.64"/>
</g>
<!-- 3037572215707566626 -->
<g id="node16" class="node">
<title>3037572215707566626</title>
<polygon fill="none" stroke="black" points="145.5,-275.49 91.5,-275.49 91.5,-239.49 145.5,-239.49 145.5,-275.49"/>
<text text-anchor="middle" x="118.5" y="-253.79" font-family="Helvetica,sans-Serif" font-size="14.00">(1, 3)</text>
</g>
<!-- 3037572215707566626&#45;&gt;&#45;2673623266083146080 -->
<g id="edge11" class="edge">
<title>3037572215707566626&#45;&gt;&#45;2673623266083146080</title>
<path fill="none" stroke="black" d="M125.88,-275.58C135.51,-297.89 152.91,-338.17 167.9,-372.89"/>
<polygon fill="black" stroke="black" points="164.88,-374.72 172.06,-382.51 171.31,-371.94 164.88,-374.72"/>
</g>
<!-- &#45;686277884539365730 -->
<g id="node17" class="node">
<title>&#45;686277884539365730</title>
<polygon fill="none" stroke="black" points="222.5,-275.49 168.5,-275.49 168.5,-239.49 222.5,-239.49 222.5,-275.49"/>
<text text-anchor="middle" x="195.5" y="-253.79" font-family="Helvetica,sans-Serif" font-size="14.00">(1, 0)</text>
</g>
<!-- &#45;686277884539365730&#45;&gt;&#45;2673623266083146080 -->
<g id="edge12" class="edge">
<title>&#45;686277884539365730&#45;&gt;&#45;2673623266083146080</title>
<path fill="none" stroke="black" d="M195.5,-275.58C195.5,-296.75 195.5,-334.11 195.5,-367.53"/>
<polygon fill="black" stroke="black" points="192,-367.76 195.5,-377.76 199,-367.76 192,-367.76"/>
</g>
<!-- 1423005488578264567 -->
<g id="node18" class="node">
<title>1423005488578264567</title>
<polygon fill="none" stroke="black" points="294.5,-275.49 240.5,-275.49 240.5,-239.49 294.5,-239.49 294.5,-275.49"/>
<text text-anchor="middle" x="267.5" y="-253.79" font-family="Helvetica,sans-Serif" font-size="14.00">(1, 1)</text>
</g>
<!-- 1423005488578264567&#45;&gt;&#45;2673623266083146080 -->
<g id="edge13" class="edge">
<title>1423005488578264567&#45;&gt;&#45;2673623266083146080</title>
<path fill="none" stroke="black" d="M260.59,-275.58C251.62,-297.81 235.43,-337.88 221.45,-372.51"/>
<polygon fill="black" stroke="black" points="218.07,-371.53 217.57,-382.12 224.56,-374.16 218.07,-371.53"/>
</g>
<!-- 8098750489599694570 -->
<g id="node19" class="node">
<title>8098750489599694570</title>
<polygon fill="none" stroke="black" points="375.5,-455.77 321.5,-455.77 321.5,-419.77 375.5,-419.77 375.5,-455.77"/>
<text text-anchor="middle" x="348.5" y="-434.07" font-family="Helvetica,sans-Serif" font-size="14.00">(1, 1)</text>
</g>
<!-- 3882061535827586030 -->
<g id="node20" class="node">
<title>3882061535827586030</title>
<polygon fill="none" stroke="black" points="355.5,-569.57 301.5,-569.57 301.5,-533.57 355.5,-533.57 355.5,-569.57"/>
<text text-anchor="middle" x="328.5" y="-547.87" font-family="Helvetica,sans-Serif" font-size="14.00">(1, 1)</text>
</g>
<!-- 8098750489599694570&#45;&gt;3882061535827586030 -->
<g id="edge14" class="edge">
<title>8098750489599694570&#45;&gt;3882061535827586030</title>
<path fill="none" stroke="black" d="M345.37,-456.24C342.16,-474.21 337.11,-502.44 333.37,-523.34"/>
<polygon fill="black" stroke="black" points="329.92,-522.76 331.6,-533.22 336.81,-524 329.92,-522.76"/>
</g>
<!-- 3882061535827586030&#45;&gt;8689134210354486142 -->
<g id="edge40" class="edge">
<title>3882061535827586030&#45;&gt;8689134210354486142</title>
<path fill="none" stroke="black" d="M324,-569.84C321.94,-577.78 319.28,-587.97 316.32,-599.36"/>
<polygon fill="black" stroke="black" points="312.9,-598.62 313.77,-609.18 319.67,-600.38 312.9,-598.62"/>
</g>
<!-- 2655272049464826541 -->
<g id="node21" class="node">
<title>2655272049464826541</title>
<ellipse fill="none" stroke="black" cx="522.5" cy="-104.5" rx="32.49" ry="32.49"/>
<text text-anchor="middle" x="522.5" y="-100.8" font-family="Helvetica,sans-Serif" font-size="14.00">amax</text>
</g>
<!-- 2655272049464826541&#45;&gt;7910317537205797834 -->
<g id="edge15" class="edge">
<title>2655272049464826541&#45;&gt;7910317537205797834</title>
<path fill="none" stroke="black" d="M523.13,-137.15C523.67,-164.39 524.44,-203.28 524.95,-229.18"/>
<polygon fill="black" stroke="black" points="521.46,-229.48 525.16,-239.41 528.46,-229.34 521.46,-229.48"/>
</g>
<!-- &#45;5162990783312136835 -->
<g id="node22" class="node">
<title>&#45;5162990783312136835</title>
<polygon fill="none" stroke="black" points="549.5,-36 495.5,-36 495.5,0 549.5,0 549.5,-36"/>
<text text-anchor="middle" x="522.5" y="-14.3" font-family="Helvetica,sans-Serif" font-size="14.00">(0, 0)</text>
</g>
<!-- &#45;5162990783312136835&#45;&gt;2655272049464826541 -->
<g id="edge16" class="edge">
<title>&#45;5162990783312136835&#45;&gt;2655272049464826541</title>
<path fill="none" stroke="black" d="M522.5,-36.1C522.5,-43.53 522.5,-52.59 522.5,-61.62"/>
<polygon fill="black" stroke="black" points="519,-61.73 522.5,-71.73 526,-61.73 519,-61.73"/>
</g>
<!-- 2496233838919351021 -->
<g id="node23" class="node">
<title>2496233838919351021</title>
<ellipse fill="none" stroke="black" cx="605.5" cy="-104.5" rx="32.49" ry="32.49"/>
<text text-anchor="middle" x="605.5" y="-100.8" font-family="Helvetica,sans-Serif" font-size="14.00">amax</text>
</g>
<!-- 2496233838919351021&#45;&gt;3017243508233101468 -->
<g id="edge17" class="edge">
<title>2496233838919351021&#45;&gt;3017243508233101468</title>
<path fill="none" stroke="black" d="M606.13,-137.15C606.67,-164.39 607.44,-203.28 607.95,-229.18"/>
<polygon fill="black" stroke="black" points="604.46,-229.48 608.16,-239.41 611.46,-229.34 604.46,-229.48"/>
</g>
<!-- 1344649972789861590 -->
<g id="node24" class="node">
<title>1344649972789861590</title>
<polygon fill="none" stroke="black" points="632.5,-36 578.5,-36 578.5,0 632.5,0 632.5,-36"/>
<text text-anchor="middle" x="605.5" y="-14.3" font-family="Helvetica,sans-Serif" font-size="14.00">(0, 1)</text>
</g>
<!-- 1344649972789861590&#45;&gt;2496233838919351021 -->
<g id="edge18" class="edge">
<title>1344649972789861590&#45;&gt;2496233838919351021</title>
<path fill="none" stroke="black" d="M605.5,-36.1C605.5,-43.53 605.5,-52.59 605.5,-61.62"/>
<polygon fill="black" stroke="black" points="602,-61.73 605.5,-71.73 609,-61.73 602,-61.73"/>
</g>
<!-- &#45;3584051650940435272 -->
<g id="node25" class="node">
<title>&#45;3584051650940435272</title>
<ellipse fill="none" stroke="black" cx="688.5" cy="-104.5" rx="32.49" ry="32.49"/>
<text text-anchor="middle" x="688.5" y="-100.8" font-family="Helvetica,sans-Serif" font-size="14.00">amax</text>
</g>
<!-- &#45;3584051650940435272&#45;&gt;5126526881350731765 -->
<g id="edge19" class="edge">
<title>&#45;3584051650940435272&#45;&gt;5126526881350731765</title>
<path fill="none" stroke="black" d="M687.87,-137.15C687.33,-164.39 686.55,-203.28 686.04,-229.18"/>
<polygon fill="black" stroke="black" points="682.54,-229.34 685.84,-239.41 689.53,-229.48 682.54,-229.34"/>
</g>
<!-- &#45;3548424056182834776 -->
<g id="node26" class="node">
<title>&#45;3548424056182834776</title>
<polygon fill="none" stroke="black" points="715.5,-36 661.5,-36 661.5,0 715.5,0 715.5,-36"/>
<text text-anchor="middle" x="688.5" y="-14.3" font-family="Helvetica,sans-Serif" font-size="14.00">(0, 2)</text>
</g>
<!-- &#45;3548424056182834776&#45;&gt;&#45;3584051650940435272 -->
<g id="edge20" class="edge">
<title>&#45;3548424056182834776&#45;&gt;&#45;3584051650940435272</title>
<path fill="none" stroke="black" d="M688.5,-36.1C688.5,-43.53 688.5,-52.59 688.5,-61.62"/>
<polygon fill="black" stroke="black" points="685,-61.73 688.5,-71.73 692,-61.73 685,-61.73"/>
</g>
<!-- 7899027942615625431 -->
<g id="node27" class="node">
<title>7899027942615625431</title>
<ellipse fill="none" stroke="black" cx="771.5" cy="-104.5" rx="32.49" ry="32.49"/>
<text text-anchor="middle" x="771.5" y="-100.8" font-family="Helvetica,sans-Serif" font-size="14.00">amax</text>
</g>
<!-- 7899027942615625431&#45;&gt;&#45;6812576436256821426 -->
<g id="edge21" class="edge">
<title>7899027942615625431&#45;&gt;&#45;6812576436256821426</title>
<path fill="none" stroke="black" d="M768.56,-137.15C766.04,-164.39 762.43,-203.28 760.03,-229.18"/>
<polygon fill="black" stroke="black" points="756.52,-229.13 759.08,-239.41 763.49,-229.78 756.52,-229.13"/>
</g>
<!-- 2959216699919163649 -->
<g id="node28" class="node">
<title>2959216699919163649</title>
<polygon fill="none" stroke="black" points="798.5,-36 744.5,-36 744.5,0 798.5,0 798.5,-36"/>
<text text-anchor="middle" x="771.5" y="-14.3" font-family="Helvetica,sans-Serif" font-size="14.00">(0, 3)</text>
</g>
<!-- 2959216699919163649&#45;&gt;7899027942615625431 -->
<g id="edge22" class="edge">
<title>2959216699919163649&#45;&gt;7899027942615625431</title>
<path fill="none" stroke="black" d="M771.5,-36.1C771.5,-43.53 771.5,-52.59 771.5,-61.62"/>
<polygon fill="black" stroke="black" points="768,-61.73 771.5,-71.73 775,-61.73 768,-61.73"/>
</g>
<!-- &#45;421336058958502501 -->
<g id="node29" class="node">
<title>&#45;421336058958502501</title>
<ellipse fill="none" stroke="black" cx="198.5" cy="-104.5" rx="32.49" ry="32.49"/>
<text text-anchor="middle" x="198.5" y="-100.8" font-family="Helvetica,sans-Serif" font-size="14.00">amax</text>
</g>
<!-- &#45;421336058958502501&#45;&gt;&#45;686277884539365730 -->
<g id="edge23" class="edge">
<title>&#45;421336058958502501&#45;&gt;&#45;686277884539365730</title>
<path fill="none" stroke="black" d="M197.87,-137.15C197.33,-164.39 196.55,-203.28 196.04,-229.18"/>
<polygon fill="black" stroke="black" points="192.54,-229.34 195.84,-239.41 199.53,-229.48 192.54,-229.34"/>
</g>
<!-- 4687157868652251217 -->
<g id="node30" class="node">
<title>4687157868652251217</title>
<polygon fill="none" stroke="black" points="225.5,-36 171.5,-36 171.5,0 225.5,0 225.5,-36"/>
<text text-anchor="middle" x="198.5" y="-14.3" font-family="Helvetica,sans-Serif" font-size="14.00">(1, 0)</text>
</g>
<!-- 4687157868652251217&#45;&gt;&#45;421336058958502501 -->
<g id="edge24" class="edge">
<title>4687157868652251217&#45;&gt;&#45;421336058958502501</title>
<path fill="none" stroke="black" d="M198.5,-36.1C198.5,-43.53 198.5,-52.59 198.5,-61.62"/>
<polygon fill="black" stroke="black" points="195,-61.73 198.5,-71.73 202,-61.73 195,-61.73"/>
</g>
<!-- &#45;6501621548818288794 -->
<g id="node31" class="node">
<title>&#45;6501621548818288794</title>
<ellipse fill="none" stroke="black" cx="281.5" cy="-104.5" rx="32.49" ry="32.49"/>
<text text-anchor="middle" x="281.5" y="-100.8" font-family="Helvetica,sans-Serif" font-size="14.00">amax</text>
</g>
<!-- &#45;6501621548818288794&#45;&gt;1423005488578264567 -->
<g id="edge25" class="edge">
<title>&#45;6501621548818288794&#45;&gt;1423005488578264567</title>
<path fill="none" stroke="black" d="M278.56,-137.15C276.04,-164.39 272.43,-203.28 270.03,-229.18"/>
<polygon fill="black" stroke="black" points="266.52,-229.13 269.08,-239.41 273.49,-229.78 266.52,-229.13"/>
</g>
<!-- &#45;7251945448955301974 -->
<g id="node32" class="node">
<title>&#45;7251945448955301974</title>
<polygon fill="none" stroke="black" points="308.5,-36 254.5,-36 254.5,0 308.5,0 308.5,-36"/>
<text text-anchor="middle" x="281.5" y="-14.3" font-family="Helvetica,sans-Serif" font-size="14.00">(1, 1)</text>
</g>
<!-- &#45;7251945448955301974&#45;&gt;&#45;6501621548818288794 -->
<g id="edge26" class="edge">
<title>&#45;7251945448955301974&#45;&gt;&#45;6501621548818288794</title>
<path fill="none" stroke="black" d="M281.5,-36.1C281.5,-43.53 281.5,-52.59 281.5,-61.62"/>
<polygon fill="black" stroke="black" points="278,-61.73 281.5,-71.73 285,-61.73 278,-61.73"/>
</g>
<!-- 5626546739340869431 -->
<g id="node33" class="node">
<title>5626546739340869431</title>
<ellipse fill="none" stroke="black" cx="32.5" cy="-104.5" rx="32.49" ry="32.49"/>
<text text-anchor="middle" x="32.5" y="-100.8" font-family="Helvetica,sans-Serif" font-size="14.00">amax</text>
</g>
<!-- 5626546739340869431&#45;&gt;&#45;3470068540394431799 -->
<g id="edge27" class="edge">
<title>5626546739340869431&#45;&gt;&#45;3470068540394431799</title>
<path fill="none" stroke="black" d="M34.38,-137.15C36.01,-164.39 38.33,-203.28 39.87,-229.18"/>
<polygon fill="black" stroke="black" points="36.39,-229.64 40.48,-239.41 43.38,-229.22 36.39,-229.64"/>
</g>
<!-- 6301724595781553276 -->
<g id="node34" class="node">
<title>6301724595781553276</title>
<polygon fill="none" stroke="black" points="59.5,-36 5.5,-36 5.5,0 59.5,0 59.5,-36"/>
<text text-anchor="middle" x="32.5" y="-14.3" font-family="Helvetica,sans-Serif" font-size="14.00">(1, 2)</text>
</g>
<!-- 6301724595781553276&#45;&gt;5626546739340869431 -->
<g id="edge28" class="edge">
<title>6301724595781553276&#45;&gt;5626546739340869431</title>
<path fill="none" stroke="black" d="M32.5,-36.1C32.5,-43.53 32.5,-52.59 32.5,-61.62"/>
<polygon fill="black" stroke="black" points="29,-61.73 32.5,-71.73 36,-61.73 29,-61.73"/>
</g>
<!-- &#45;7893749041709432525 -->
<g id="node35" class="node">
<title>&#45;7893749041709432525</title>
<ellipse fill="none" stroke="black" cx="115.5" cy="-104.5" rx="32.49" ry="32.49"/>
<text text-anchor="middle" x="115.5" y="-100.8" font-family="Helvetica,sans-Serif" font-size="14.00">amax</text>
</g>
<!-- &#45;7893749041709432525&#45;&gt;3037572215707566626 -->
<g id="edge29" class="edge">
<title>&#45;7893749041709432525&#45;&gt;3037572215707566626</title>
<path fill="none" stroke="black" d="M116.13,-137.15C116.67,-164.39 117.44,-203.28 117.95,-229.18"/>
<polygon fill="black" stroke="black" points="114.46,-229.48 118.16,-239.41 121.46,-229.34 114.46,-229.48"/>
</g>
<!-- 8411007968899183573 -->
<g id="node36" class="node">
<title>8411007968899183573</title>
<polygon fill="none" stroke="black" points="142.5,-36 88.5,-36 88.5,0 142.5,0 142.5,-36"/>
<text text-anchor="middle" x="115.5" y="-14.3" font-family="Helvetica,sans-Serif" font-size="14.00">(1, 3)</text>
</g>
<!-- 8411007968899183573&#45;&gt;&#45;7893749041709432525 -->
<g id="edge30" class="edge">
<title>8411007968899183573&#45;&gt;&#45;7893749041709432525</title>
<path fill="none" stroke="black" d="M115.5,-36.1C115.5,-43.53 115.5,-52.59 115.5,-61.62"/>
<polygon fill="black" stroke="black" points="112,-61.73 115.5,-71.73 119,-61.73 112,-61.73"/>
</g>
<!-- &#45;6332214712037900845 -->
<g id="node37" class="node">
<title>&#45;6332214712037900845</title>
<polygon fill="none" stroke="black" points="913.5,-122.5 859.5,-122.5 859.5,-86.5 913.5,-86.5 913.5,-122.5"/>
<text text-anchor="middle" x="886.5" y="-100.8" font-family="Helvetica,sans-Serif" font-size="14.00">(0, 4)</text>
</g>
<!-- &#45;1075763061997966244 -->
<g id="node39" class="node">
<title>&#45;1075763061997966244</title>
<ellipse fill="none" stroke="black" cx="886.5" cy="-257.49" rx="84.49" ry="84.49"/>
<text text-anchor="middle" x="886.5" y="-253.79" font-family="Helvetica,sans-Serif" font-size="14.00">amax&#45;amax&#45;partial</text>
</g>
<!-- &#45;6332214712037900845&#45;&gt;&#45;1075763061997966244 -->
<g id="edge32" class="edge">
<title>&#45;6332214712037900845&#45;&gt;&#45;1075763061997966244</title>
<path fill="none" stroke="black" d="M886.5,-122.52C886.5,-132.96 886.5,-147.24 886.5,-162.61"/>
<polygon fill="black" stroke="black" points="883,-162.83 886.5,-172.83 890,-162.83 883,-162.83"/>
</g>
<!-- &#45;3528095348708369618 -->
<g id="node38" class="node">
<title>&#45;3528095348708369618</title>
<polygon fill="none" stroke="black" points="423.5,-122.5 369.5,-122.5 369.5,-86.5 423.5,-86.5 423.5,-122.5"/>
<text text-anchor="middle" x="396.5" y="-100.8" font-family="Helvetica,sans-Serif" font-size="14.00">(1, 4)</text>
</g>
<!-- &#45;4152371170421295286 -->
<g id="node41" class="node">
<title>&#45;4152371170421295286</title>
<ellipse fill="none" stroke="black" cx="396.5" cy="-257.49" rx="84.49" ry="84.49"/>
<text text-anchor="middle" x="396.5" y="-253.79" font-family="Helvetica,sans-Serif" font-size="14.00">amax&#45;amax&#45;partial</text>
</g>
<!-- &#45;3528095348708369618&#45;&gt;&#45;4152371170421295286 -->
<g id="edge37" class="edge">
<title>&#45;3528095348708369618&#45;&gt;&#45;4152371170421295286</title>
<path fill="none" stroke="black" d="M396.5,-122.52C396.5,-132.96 396.5,-147.24 396.5,-162.61"/>
<polygon fill="black" stroke="black" points="393,-162.83 396.5,-172.83 400,-162.83 393,-162.83"/>
</g>
<!-- &#45;1075763061997966244&#45;&gt;&#45;1751398162364693482 -->
<g id="edge31" class="edge">
<title>&#45;1075763061997966244&#45;&gt;&#45;1751398162364693482</title>
<path fill="none" stroke="black" d="M864.74,-339.28C857.88,-364.78 850.77,-391.2 845.68,-410.09"/>
<polygon fill="black" stroke="black" points="842.3,-409.19 843.08,-419.76 849.06,-411.01 842.3,-409.19"/>
</g>
<!-- &#45;5518290690916172866&#45;&gt;&#45;4638865035039020160 -->
<g id="edge33" class="edge">
<title>&#45;5518290690916172866&#45;&gt;&#45;4638865035039020160</title>
<path fill="none" stroke="black" d="M761.5,-855.58C761.5,-864.87 761.5,-873.52 761.5,-881.01"/>
<polygon fill="black" stroke="black" points="758,-881.1 761.5,-891.1 765,-881.1 758,-881.1"/>
</g>
<!-- &#45;4152371170421295286&#45;&gt;8098750489599694570 -->
<g id="edge36" class="edge">
<title>&#45;4152371170421295286&#45;&gt;8098750489599694570</title>
<path fill="none" stroke="black" d="M374.74,-339.28C367.88,-364.78 360.77,-391.2 355.68,-410.09"/>
<polygon fill="black" stroke="black" points="352.3,-409.19 353.08,-419.76 359.06,-411.01 352.3,-409.19"/>
</g>
<!-- 8689134210354486142&#45;&gt;254208993933676206 -->
<g id="edge38" class="edge">
<title>8689134210354486142&#45;&gt;254208993933676206</title>
<path fill="none" stroke="black" d="M282.5,-855.58C282.5,-864.87 282.5,-873.52 282.5,-881.01"/>
<polygon fill="black" stroke="black" points="279,-881.1 282.5,-891.1 286,-881.1 279,-881.1"/>
</g>
</g>
</svg>
